<mxfile host="65bd71144e">
    <diagram id="ytVhaHny0bRbt7vrONSO" name="Page-1">
        <mxGraphModel dx="1677" dy="1123" grid="1" gridSize="10" guides="1" tooltips="1" connect="1" arrows="1" fold="1" page="1" pageScale="1" pageWidth="850" pageHeight="1100" math="0" shadow="0">
            <root>
                <mxCell id="0"/>
                <mxCell id="1" parent="0"/>
                <mxCell id="2" value="" style="rounded=0;whiteSpace=wrap;html=1;" vertex="1" parent="1">
                    <mxGeometry x="90" y="70" width="1790" height="980" as="geometry"/>
                </mxCell>
                <mxCell id="3" value="Client" style="rounded=1;whiteSpace=wrap;html=1;" vertex="1" parent="1">
                    <mxGeometry x="150" y="520" width="120" height="60" as="geometry"/>
                </mxCell>
                <mxCell id="4" value="gateway/loadbalancer" style="rounded=1;whiteSpace=wrap;html=1;" vertex="1" parent="1">
                    <mxGeometry x="340" y="280" width="50" height="530" as="geometry"/>
                </mxCell>
                <mxCell id="5" value="" style="rounded=0;whiteSpace=wrap;html=1;" vertex="1" parent="1">
                    <mxGeometry x="490" y="130" width="970" height="890" as="geometry"/>
                </mxCell>
                <mxCell id="6" value="router layer" style="rounded=1;whiteSpace=wrap;html=1;" vertex="1" parent="1">
                    <mxGeometry x="560" y="330" width="120" height="220" as="geometry"/>
                </mxCell>
                <mxCell id="7" value="Middlewares" style="rounded=1;whiteSpace=wrap;html=1;" vertex="1" parent="1">
                    <mxGeometry x="700" y="330" width="60" height="220" as="geometry"/>
                </mxCell>
                <mxCell id="8" value="controllers" style="rounded=1;whiteSpace=wrap;html=1;" vertex="1" parent="1">
                    <mxGeometry x="800" y="220" width="120" height="410" as="geometry"/>
                </mxCell>
                <mxCell id="9" value="services" style="rounded=1;whiteSpace=wrap;html=1;" vertex="1" parent="1">
                    <mxGeometry x="960" y="220" width="120" height="410" as="geometry"/>
                </mxCell>
                <mxCell id="10" value="reposiotry" style="rounded=1;whiteSpace=wrap;html=1;" vertex="1" parent="1">
                    <mxGeometry x="1130" y="220" width="120" height="410" as="geometry"/>
                </mxCell>
                <mxCell id="11" value="db" style="shape=cylinder3;whiteSpace=wrap;html=1;boundedLbl=1;backgroundOutline=1;size=15;" vertex="1" parent="1">
                    <mxGeometry x="1580" y="360" width="160" height="230" as="geometry"/>
                </mxCell>
                <mxCell id="22" value="" style="rounded=0;whiteSpace=wrap;html=1;fillColor=none;" vertex="1" parent="1">
                    <mxGeometry x="780" y="180" width="550" height="470" as="geometry"/>
                </mxCell>
                <mxCell id="12" value="" style="rounded=0;whiteSpace=wrap;html=1;" vertex="1" parent="1">
                    <mxGeometry x="780" y="680" width="620" height="330" as="geometry"/>
                </mxCell>
                <mxCell id="13" value="utilities" style="rounded=1;whiteSpace=wrap;html=1;" vertex="1" parent="1">
                    <mxGeometry x="820" y="740" width="120" height="60" as="geometry"/>
                </mxCell>
                <mxCell id="16" value="" style="rounded=0;whiteSpace=wrap;html=1;" vertex="1" parent="1">
                    <mxGeometry x="990" y="710" width="360" height="270" as="geometry"/>
                </mxCell>
                <mxCell id="17" value="Server services layer" style="text;html=1;align=center;verticalAlign=middle;whiteSpace=wrap;rounded=0;" vertex="1" parent="1">
                    <mxGeometry x="1000" y="685" width="140" height="30" as="geometry"/>
                </mxCell>
                <mxCell id="18" value="service functions" style="rounded=1;whiteSpace=wrap;html=1;" vertex="1" parent="1">
                    <mxGeometry x="1040" y="750" width="100" height="50" as="geometry"/>
                </mxCell>
                <mxCell id="19" value="webhooks" style="rounded=1;whiteSpace=wrap;html=1;" vertex="1" parent="1">
                    <mxGeometry x="1040" y="840" width="100" height="50" as="geometry"/>
                </mxCell>
                <mxCell id="20" value="cron jobs" style="rounded=1;whiteSpace=wrap;html=1;" vertex="1" parent="1">
                    <mxGeometry x="1200" y="750" width="100" height="50" as="geometry"/>
                </mxCell>
                <mxCell id="21" value="message queues/events" style="rounded=1;whiteSpace=wrap;html=1;" vertex="1" parent="1">
                    <mxGeometry x="1200" y="840" width="110" height="50" as="geometry"/>
                </mxCell>
                <mxCell id="23" value="Handlers" style="text;html=1;align=center;verticalAlign=middle;whiteSpace=wrap;rounded=0;" vertex="1" parent="1">
                    <mxGeometry x="790" y="140" width="60" height="30" as="geometry"/>
                </mxCell>
                <mxCell id="24" value="Monolith&lt;div&gt;&lt;br&gt;&lt;/div&gt;" style="text;html=1;align=center;verticalAlign=middle;whiteSpace=wrap;rounded=0;" vertex="1" parent="1">
                    <mxGeometry x="493" y="108" width="60" height="30" as="geometry"/>
                </mxCell>
            </root>
        </mxGraphModel>
    </diagram>
</mxfile>